<?xml version="1.0" encoding="UTF-8"?>
<svg id="Layer_2" data-name="Layer 2" xmlns="http://www.w3.org/2000/svg" viewBox="0 0 328.87 955.82">
  <g id="Layer_1-2" data-name="Layer 1">
    <path d="M328.87,911.32c-8.49,9.87-19.07,16.17-32.13,16.98-12.53,.78-21.59,7.49-30.54,15.23-11.54,9.99-25.24,13.25-40.35,12.05-9.27-.74-18.62-.39-27.75-2.59-3.44-.83-6.6-2.29-9.7-3.93-11.66-6.18-13.41-17.02-4.32-26.58,.88-.93,2.19-1.55,2.45-3.11-3.95,0-7.88-.26-11.77,.05-16.47,1.3-32.94-.25-49.4-.23-9.08,.01-18.17-1.98-27.24-3.19-1.25-.17-2.64-.81-3.56-1.67-5-4.66-8.46-10.41-9.63-17.08-1.2-6.81,2.64-11.33,11.74-14.44,5.8-1.98,11.67-3.82,17.82-4.72,7.72-1.13,13.2-6.78,19.67-10.44,8.95-5.06,15.83-12.51,23.23-19.38,2.24-2.07,4.82-3.69,7.93-3.91,2.84-.19,4.19-1.81,4.73-4.3,.49-2.27,.97-4.57,1.12-6.88,1.47-22.94,4.3-45.81,.27-68.87-1.44-8.26-2.67-16.73-2.77-25.28-.14-11.6-6.52-20.34-14.4-28.16-7.69-7.63-15.95-14.21-25.48-19.77-12.14-7.08-19.02-18.53-19.96-33.27-1.08-16.75-2.82-33.45-5.22-50.1-1.5-10.35-2.02-20.87-2.65-31.33-1.41-23.33,.83-46.58,2.16-69.82,.42-7.36,3.34-14.53,2.8-22.16-1.08-15.04-.6-30.21,1.52-44.99,1.19-8.3,1.01-16.4,1.43-24.6,.12-2.37,0-3.8-3.28-2.29-4.63,2.13-8.01-.72-6.42-5.52,4.99-14.97,5.11-30.42,5.98-45.93,.64-11.39,3.92-22.55,6.68-33.67,1.56-6.3,3.13-12.59,4.67-18.89,.55-2.24,.11-4.33-1.32-6.14-8.05-10.19-16.09-20.38-24.18-30.53-6.63-8.31-15.41-13.54-25.16-17.33-7.03-2.74-12.47-6.29-12.5-15.28-.02-5.46-2.66-10.6-7.2-14.34-3.36-2.77-4.81-6.35-3.72-10.69,.73-2.91-.33-5.04-2.21-7.24-11.27-13.16-23.29-25.62-35.64-37.77-6.02-5.93-6.11-9.26,0-15.08,8.35-7.95,13.5-18.11,19.65-27.59,4.17-6.43,8.12-13,12.46-19.31,3.17-4.61,5.29-4.43,9.04-.33,7.19,7.86,14.38,15.74,21.81,23.38,18.34,18.88,36.76,37.68,55.28,56.38,3.35,3.38,4.4,6.21,1.08,10.26-3.89,4.75-7.24,9.94-11.02,14.79-1.8,2.31-1.73,3.88,1.01,5.01,3.89,1.61,6.55,4.48,8.6,8.03,1.83,3.17,3.76,3.97,6.44,.69,5.69-6.98,12.91-12.63,18.45-19.6,8.67-10.9,16.61-22.44,23.89-34.37,.87-1.42,1.54-3.05,2.68-4.21,6.1-6.19,5.09-12.44,2.22-20.11-3.94-10.53-8.92-17.37-21.47-14.97-2.96,.57-6.27-.52-9.4-.98-6.97-1.03-9.05-3.02-10.38-10.06-.33-1.72-.75-3.31-2.25-4.27-2.39-1.52-3.72-3.89-4.83-6.25-2.02-4.32-4.1-8-9.5-9.11-3.04-.63-3.83-3.94-3.13-7.04,.36-1.61,.9-3.22,1.58-4.73,3.26-7.2,3.46-14.17,.16-21.64-4.06-9.19-2.01-18.69,.64-27.88,1.14-3.96,2.94-7.7,4.04-11.74,1.91-7,8.59-9.6,14.21-12.48,9.01-4.62,17.97-9.41,27.6-12.79,17.62-6.18,34.11-3.3,49.5,6.31,9.3,5.81,12.27,15.91,16.11,25.66,5.07,12.89,4.85,26.37,6.87,39.61,.33,2.15,.52,4.33,1.64,6.24,1.55,2.63,1.73,5.28,.69,8.14-.86,2.37-.97,4.85-.43,7.34,.95,4.39-.12,5.69-4.64,5.63-6.9-.09-11.76,5.84-10.11,12.47,1.83,7.36,6.45,12.15,13.57,14.76,6.22,2.28,12.45,4.27,18.12,8.13,11.49,7.83,15.66,19.3,18.12,32.07,2.97,15.42,4.31,30.94,4.06,46.64-.16,10.31-2.82,19.88-7.15,29.15-3.31,7.09-5.49,14.46-5.83,22.43-.63,14.47-1.89,28.9-5.03,43.08-2.43,10.97-6.46,21.33-12.45,30.88-1.8,2.87-4.45,4.37-7.88,4.58-3.41,.21-6.58-.5-9.71-1.85-5.43-2.35-4.66-2.01-6.2,3.83-2.24,8.53-.16,17.13,2.03,24.33,2.5,8.22,4.44,16.82,7.66,24.97,7.1,17.99,15.07,35.95,13.58,56.04-.99,13.29-1.44,27.17-10.67,37.74-9.45,10.82-13.56,24.33-20.64,36.3-1.68,2.84-2.96,5.62-7.05,4.93-2.3-.39-3.33,1.12-3.58,3.21-.38,3.14-.92,6.28-.99,9.42-.17,7.5,.18,15.01-.19,22.49-.91,18.28,2.15,36.15,5.14,54.03,1.03,6.15,1.27,12.29,.53,18.41-.46,3.79-.09,7.29,1.3,10.75,5.12,12.69,8.4,25.91,11.35,39.24,.82,3.72,2.08,7.46,4.74,10.34,14.82,16.05,22.6,35.93,30.54,55.74,7.13,17.77,14.08,35.62,21.5,53.26,2.56,6.08,6.49,11.53,10.44,16.87,.87,1.18,2.05,2.57,2.07,3.88,.1,5.42,3.41,9.24,6.06,13.44,2.75,4.36,5.45,8.22,11.07,9.92,6.56,1.98,8.42,8.63,10.36,14.44,3.15,9.43,8.44,18.15,9.47,28.31,.07,.68,.98,1.28,1.5,1.92v13Zm-109.44-108.45c.08,5.26-2.4,10.34-.81,15.38,1.2,3.81,1.01,7.41,.68,11.27-.65,7.52-2.08,15.25,4.46,21.51,1.97,1.89,2.54,5.06,2.9,7.86,.98,7.57,2.73,15.06,2.31,22.78-.08,1.39-.77,3.53,.79,4.07,1.85,.65,2.53-1.65,3.61-2.8,.33-.36,.65-.82,.74-1.28,1.44-7.2,6.62-12.16,10.77-17.69,2.42-3.24,2.6-6.38,.6-9.69-2.36-3.91-3.73-8.15-4.61-12.57-3.01-15.12-11.52-27.25-21.43-38.83Z"/>
  </g>
</svg>